<?xml version="1.0" standalone="no"?><!DOCTYPE svg PUBLIC "-//W3C//DTD SVG 1.1//EN" "http://www.w3.org/Graphics/SVG/1.1/DTD/svg11.dtd"><svg t="1591972373749" class="icon" viewBox="0 0 1024 1024" version="1.1" xmlns="http://www.w3.org/2000/svg" p-id="19542" width="50" height="50" xmlns:xlink="http://www.w3.org/1999/xlink"><defs><style type="text/css"></style></defs><path d="M512 1024a512 512 0 1 1 512-512 512 512 0 0 1-512 512z m0-992A480 480 0 1 0 992 512 480 480 0 0 0 512 32z m145.755429 506.642286l-192 127.835428a32 32 0 0 1-49.755429-26.587428V384.201143a32 32 0 0 1 49.755429-26.587429l192 127.835429a31.926857 31.926857 0 0 1 0 53.193143z m-36.955429-45.403429l-150.217143-99.090286A45.494857 45.494857 0 0 0 448 389.485714v243.382857a51.2 51.2 0 0 0 22.582857-5.613714l150.217143-92.580571a26.130286 26.130286 0 0 0 11.702857-21.76 22.784 22.784 0 0 0-11.702857-19.675429z" p-id="19543" fill="#bfbfbf"></path></svg>